<svg width="92" height="24" viewBox="0 0 92 24" fill="none" xmlns="http://www.w3.org/2000/svg">
<path d="M22.9556 7.76677H26.6049L30.115 17.5627H30.1707L33.7086 7.76677H37.2466L31.9257 21.2012H28.36L22.9556 7.76677ZM47.5455 19.4939H47.4619C47.1276 20.091 46.589 20.5854 45.8462 20.9773C45.1033 21.3504 44.2583 21.537 43.3111 21.537C42.7725 21.537 42.2061 21.4624 41.6118 21.3131C41.036 21.1825 40.4975 20.9586 39.996 20.6414C39.5131 20.3056 39.1046 19.8764 38.7703 19.3539C38.4545 18.8129 38.2967 18.1504 38.2967 17.3668C38.2967 16.3592 38.5753 15.5568 39.1325 14.9598C39.7081 14.3627 40.4418 13.9055 41.3331 13.5883C42.2247 13.2712 43.2089 13.0659 44.2861 12.9726C45.3818 12.8607 46.4497 12.8047 47.4898 12.8047V12.4688C47.4898 11.6292 47.1833 11.0134 46.5705 10.6216C45.9761 10.2111 45.2611 10.0058 44.4254 10.0058C43.7196 10.0058 43.0418 10.1551 42.3918 10.4537C41.7417 10.7522 41.2032 11.1161 40.7761 11.5452L39.0489 9.50205C39.8103 8.79304 40.6832 8.26126 41.6675 7.90672C42.6704 7.55217 43.6825 7.37494 44.704 7.37494C45.8925 7.37494 46.8676 7.54287 47.629 7.87873C48.4091 8.21459 49.0219 8.6531 49.4677 9.19418C49.9134 9.73526 50.2198 10.3417 50.387 11.0134C50.5726 11.6851 50.6655 12.3569 50.6655 13.0286V21.2012H47.5455V19.4939ZM47.4898 15.0717H46.7376C46.199 15.0717 45.6326 15.0997 45.0383 15.1557C44.4439 15.193 43.8961 15.2956 43.3947 15.4636C42.8932 15.6128 42.4754 15.8367 42.1411 16.1353C41.8068 16.4152 41.6396 16.807 41.6396 17.3108C41.6396 17.628 41.7046 17.8986 41.8346 18.1225C41.9832 18.3277 42.1689 18.4956 42.3918 18.6263C42.6147 18.7569 42.8654 18.8502 43.144 18.9061C43.4225 18.9621 43.7011 18.9901 43.9797 18.9901C45.1311 18.9901 46.004 18.6822 46.5983 18.0665C47.1926 17.4507 47.4898 16.6111 47.4898 15.5475V15.0717ZM66.7618 21.2012H63.586V19.0461H63.5303C63.2332 19.7178 62.7131 20.3149 61.9702 20.8373C61.246 21.3411 60.3824 21.593 59.3795 21.593C58.5066 21.593 57.7545 21.4438 57.123 21.1452C56.5101 20.828 55.9994 20.4175 55.5908 19.9137C55.2008 19.4099 54.913 18.8315 54.7273 18.1784C54.5416 17.5254 54.4487 16.8537 54.4487 16.1633V7.76677H57.7916V15.2117C57.7916 15.6035 57.8195 16.014 57.8752 16.4432C57.9309 16.8723 58.0516 17.2641 58.2373 17.6187C58.4231 17.9545 58.6738 18.2344 58.9895 18.4583C59.3238 18.6822 59.7602 18.7942 60.2988 18.7942C60.8188 18.7942 61.2738 18.6915 61.6638 18.4863C62.0724 18.2624 62.3974 17.9825 62.6388 17.6467C62.8989 17.3108 63.0939 16.9283 63.2238 16.4991C63.3539 16.0513 63.4188 15.6035 63.4188 15.1557V7.76677H66.7618V21.2012ZM70.8298 0.0419922H74.1727V21.2012H70.8298V0.0419922ZM76.3059 10.4537V7.76677H78.6459V3.8764H81.9331V7.76677H85.2761V10.4537H81.9331V16.6951C81.9331 17.2921 82.0355 17.7866 82.2396 18.1784C82.4624 18.5703 82.9458 18.7662 83.6882 18.7662C83.911 18.7662 84.1527 18.7475 84.4125 18.7102C84.6729 18.6542 84.9049 18.5796 85.1089 18.4863L85.2203 21.1172C84.9237 21.2292 84.5706 21.3131 84.1617 21.3691C83.7536 21.4438 83.3636 21.4811 82.9917 21.4811C82.1003 21.4811 81.376 21.3598 80.8188 21.1172C80.2617 20.856 79.816 20.5108 79.4817 20.0816C79.1662 19.6338 78.9433 19.13 78.8131 18.5703C78.7016 17.9918 78.6459 17.3761 78.6459 16.723V10.4537H76.3059Z" fill="black"/>
<path fill-rule="evenodd" clip-rule="evenodd" d="M2.75377 8.3962L0 11.0551H5.52846H11.057V16.3729C11.057 19.2977 11.0837 21.6907 11.1164 21.6907C11.1491 21.6907 12.4065 20.5025 13.9104 19.0504L16.645 16.41V11.0737V5.7373H11.0763H5.50753L2.75377 8.3962Z" fill="#099250"/>
</svg>
